<svg width="21" height="20" viewBox="0 0 21 20" fill="none" xmlns="http://www.w3.org/2000/svg">
<path d="M19.875 10C19.875 10.8 18.8922 11.4594 18.6953 12.1969C18.4922 12.9594 19.0063 14.0219 18.6203 14.6891C18.2281 15.3672 17.0484 15.4484 16.4984 15.9984C15.9484 16.5484 15.8672 17.7281 15.1891 18.1203C14.5219 18.5063 13.4594 17.9922 12.6969 18.1953C11.9594 18.3922 11.3 19.375 10.5 19.375C9.7 19.375 9.04062 18.3922 8.30312 18.1953C7.54062 17.9922 6.47813 18.5063 5.81094 18.1203C5.13281 17.7281 5.05156 16.5484 4.50156 15.9984C3.95156 15.4484 2.77187 15.3672 2.37969 14.6891C1.99375 14.0219 2.50781 12.9594 2.30469 12.1969C2.10781 11.4594 1.125 10.8 1.125 10C1.125 9.2 2.10781 8.54062 2.30469 7.80312C2.50781 7.04062 1.99375 5.97813 2.37969 5.31094C2.77187 4.63281 3.95156 4.55156 4.50156 4.00156C5.05156 3.45156 5.13281 2.27187 5.81094 1.87969C6.47813 1.49375 7.54062 2.00781 8.30312 1.80469C9.04062 1.60781 9.7 0.625 10.5 0.625C11.3 0.625 11.9594 1.60781 12.6969 1.80469C13.4594 2.00781 14.5219 1.49375 15.1891 1.87969C15.8672 2.27187 15.9484 3.45156 16.4984 4.00156C17.0484 4.55156 18.2281 4.63281 18.6203 5.31094C19.0063 5.97813 18.4922 7.04062 18.6953 7.80312C18.8922 8.54062 19.875 9.2 19.875 10Z" fill="url(#paint0_linear_1725_256)"/>
<path d="M13.2098 7.20645L9.64102 10.7752L7.79102 8.92676C7.38945 8.5252 6.73789 8.5252 6.33633 8.92676C5.93477 9.32832 5.93477 9.97988 6.33633 10.3814L8.93164 12.9768C9.32227 13.3674 9.95664 13.3674 10.3473 12.9768L14.6629 8.66113C15.0645 8.25957 15.0645 7.60801 14.6629 7.20645C14.2613 6.80488 13.6113 6.80488 13.2098 7.20645Z" fill="#242C38"/>
<defs>
<linearGradient id="paint0_linear_1725_256" x1="1.125" y1="9.99995" x2="19.875" y2="9.99995" gradientUnits="userSpaceOnUse">
<stop stop-color="#7AFFD7"/>
<stop offset="1" stop-color="#00FFB2"/>
</linearGradient>
</defs>
</svg>

